<svg width="16" height="16" viewBox="0 0 16 16" fill="none" xmlns="http://www.w3.org/2000/svg">
<path d="M10.6666 8.00004C10.6666 9.47273 9.4726 10.6667 7.99992 10.6667C6.52723 10.6667 5.33325 9.47273 5.33325 8.00004C5.33325 6.52736 6.52723 5.33337 7.99992 5.33337C9.4726 5.33337 10.6666 6.52736 10.6666 8.00004Z" fill="white"/>
<path d="M12.4706 0H3.52941C1.58318 0 0 1.58318 0 3.52941V12.4706C0 14.4168 1.58318 16 3.52941 16H12.4706C14.4168 16 16 14.4168 16 12.4706V3.52941C16 1.58318 14.4168 0 12.4706 0ZM8 12.4118C5.56733 12.4118 3.58824 10.4327 3.58824 8C3.58824 5.56733 5.56733 3.58824 8 3.58824C10.4327 3.58824 12.4118 5.56733 12.4118 8C12.4118 10.4327 10.4327 12.4118 8 12.4118ZM13.0588 3.82353C12.5715 3.82353 12.1765 3.42854 12.1765 2.94118C12.1765 2.45381 12.5715 2.05882 13.0588 2.05882C13.5462 2.05882 13.9412 2.45381 13.9412 2.94118C13.9412 3.42854 13.5462 3.82353 13.0588 3.82353Z" fill="white"/>
</svg>
