<svg width="16" height="16" viewBox="0 0 16 16" fill="none" xmlns="http://www.w3.org/2000/svg">
<g clip-path="url(#clip0)">
<path d="M12.7369 2.73992C11.7658 1.06417 10.0411 0.0403906 8.12313 0.00126563C8.04125 -0.000421875 7.95885 -0.000421875 7.87694 0.00126563C5.95901 0.0403906 4.23425 1.06417 3.26319 2.73992C2.27063 4.4528 2.24347 6.5103 3.19054 8.24376L7.15813 15.5059C7.15991 15.5091 7.16169 15.5123 7.16354 15.5155C7.3381 15.8189 7.65082 16 8.0001 16C8.34935 16 8.66207 15.8189 8.8366 15.5155C8.83844 15.5123 8.84022 15.5091 8.842 15.5059L12.8096 8.24376C13.7566 6.5103 13.7294 4.4528 12.7369 2.73992ZM8.00004 7.25002C6.75938 7.25002 5.75004 6.24067 5.75004 5.00002C5.75004 3.75936 6.75938 2.75002 8.00004 2.75002C9.24069 2.75002 10.25 3.75936 10.25 5.00002C10.25 6.24067 9.24072 7.25002 8.00004 7.25002Z" fill="white"/>
</g>
<defs>
<clipPath id="clip0">
<rect width="16" height="16" fill="white"/>
</clipPath>
</defs>
</svg>
